<?xml version="1.0" standalone="no"?>
<!DOCTYPE svg PUBLIC "-//W3C//DTD SVG 20010904//EN"
 "http://www.w3.org/TR/2001/REC-SVG-20010904/DTD/svg10.dtd">
<svg version="1.0" xmlns="http://www.w3.org/2000/svg"
 width="300.000000pt" height="131.000000pt" viewBox="0 0 300.000000 131.000000"
 preserveAspectRatio="xMidYMid meet">

<g transform="translate(0.000000,131.000000) scale(0.100000,-0.100000)"
fill="#000000" stroke="none">
<path d="M770 1034 c0 -9 5 -14 12 -12 18 6 21 28 4 28 -9 0 -16 -7 -16 -16z"/>
<path d="M1209 959 c-35 -32 -36 -34 -6 -10 35 29 57 39 57 26 0 -3 -16 -38
-36 -78 -40 -79 -84 -190 -84 -212 0 -29 30 -45 83 -43 l52 1 -45 4 c-49 5
-70 17 -70 41 0 8 27 74 60 147 33 73 60 140 60 149 0 27 -25 18 -71 -25z"/>
<path d="M716 906 c-19 -41 -37 -83 -41 -95 -3 -11 -50 -49 -103 -85 -54 -36
-130 -99 -172 -143 l-75 -78 85 81 c85 81 225 182 236 171 8 -7 -123 -258
-182 -350 -63 -98 -135 -167 -173 -167 -18 0 -34 7 -40 18 -6 9 -11 12 -11 7
0 -18 23 -35 47 -35 86 0 202 146 343 430 l62 125 105 55 c57 30 107 59 110
64 3 4 -39 -14 -93 -42 -54 -28 -100 -49 -103 -47 -2 3 10 38 28 80 35 83 35
85 21 85 -6 0 -26 -33 -44 -74z"/>
<path d="M950 942 c-24 -24 -28 -32 -12 -23 27 15 28 6 2 -60 -31 -78 -21 -92
22 -34 49 67 108 123 108 104 0 -9 -7 -36 -16 -62 -9 -26 -14 -51 -12 -57 2
-6 23 11 48 37 25 26 33 38 19 25 -36 -31 -39 -28 -20 23 12 34 13 47 4 56 -9
9 -25 -1 -67 -41 -31 -29 -56 -49 -56 -44 0 5 9 33 20 62 24 62 12 66 -40 14z"/>
<path d="M2438 953 c12 -2 32 -2 45 0 12 2 2 4 -23 4 -25 0 -35 -2 -22 -4z"/>
<path d="M2603 953 c9 -2 25 -2 35 0 9 3 1 5 -18 5 -19 0 -27 -2 -17 -5z"/>
<path d="M2358 943 c6 -2 18 -2 25 0 6 3 1 5 -13 5 -14 0 -19 -2 -12 -5z"/>
<path d="M2675 940 c27 -12 43 -12 25 0 -8 5 -22 9 -30 9 -10 0 -8 -3 5 -9z"/>
<path d="M2308 933 c7 -3 16 -2 19 1 4 3 -2 6 -13 5 -11 0 -14 -3 -6 -6z"/>
<path d="M2258 923 c7 -3 16 -2 19 1 4 3 -2 6 -13 5 -11 0 -14 -3 -6 -6z"/>
<path d="M2725 924 c6 -5 23 -20 40 -34 29 -24 29 -24 10 -2 -11 13 -29 28
-40 34 -11 6 -15 6 -10 2z"/>
<path d="M2218 913 c7 -3 16 -2 19 1 4 3 -2 6 -13 5 -11 0 -14 -3 -6 -6z"/>
<path d="M2105 890 c-13 -5 -14 -9 -5 -9 8 0 24 4 35 9 13 5 14 9 5 9 -8 0
-24 -4 -35 -9z"/>
<path d="M2058 873 c7 -3 16 -2 19 1 4 3 -2 6 -13 5 -11 0 -14 -3 -6 -6z"/>
<path d="M1995 860 c-13 -5 -14 -9 -5 -9 8 0 24 4 35 9 13 5 14 9 5 9 -8 0
-24 -4 -35 -9z"/>
<path d="M2794 842 c-1 -9 -3 -23 -5 -31 -2 -8 4 -17 15 -19 16 -3 18 0 12 25
-9 34 -21 49 -22 25z"/>
<path d="M1925 840 c-13 -5 -14 -9 -5 -9 8 0 24 4 35 9 13 5 14 9 5 9 -8 0
-24 -4 -35 -9z"/>
<path d="M1848 813 c7 -3 16 -2 19 1 4 3 -2 6 -13 5 -11 0 -14 -3 -6 -6z"/>
<path d="M1718 773 c7 -3 16 -2 19 1 4 3 -2 6 -13 5 -11 0 -14 -3 -6 -6z"/>
<path d="M1588 733 c7 -3 16 -2 19 1 4 3 -2 6 -13 5 -11 0 -14 -3 -6 -6z"/>
<path d="M1488 703 c7 -3 16 -2 19 1 4 3 -2 6 -13 5 -11 0 -14 -3 -6 -6z"/>
<path d="M1418 683 c7 -3 16 -2 19 1 4 3 -2 6 -13 5 -11 0 -14 -3 -6 -6z"/>
<path d="M1378 673 c7 -3 16 -2 19 1 4 3 -2 6 -13 5 -11 0 -14 -3 -6 -6z"/>
<path d="M1338 663 c7 -3 16 -2 19 1 4 3 -2 6 -13 5 -11 0 -14 -3 -6 -6z"/>
<path d="M1288 653 c6 -2 18 -2 25 0 6 3 1 5 -13 5 -14 0 -19 -2 -12 -5z"/>
<path d="M740 476 c0 -66 -4 -96 -12 -99 -7 -2 -10 -7 -7 -11 4 -4 14 0 23 9
12 13 16 37 16 106 0 53 -4 89 -10 89 -6 0 -10 -38 -10 -94z"/>
<path d="M790 501 c0 -79 13 -101 60 -101 42 0 60 32 60 107 0 87 -18 80 -22
-8 -2 -55 -7 -74 -20 -83 -13 -8 -23 -8 -35 0 -14 9 -19 28 -21 83 -4 91 -22
93 -22 2z"/>
<path d="M940 485 l0 -85 43 2 c36 1 38 2 10 5 l-33 4 0 80 c0 46 -4 79 -10
79 -6 0 -10 -35 -10 -85z"/>
<path d="M1050 485 c0 -50 4 -85 10 -85 6 0 10 35 10 85 0 50 -4 85 -10 85 -6
0 -10 -35 -10 -85z"/>
<path d="M1150 567 c0 -2 -13 -40 -30 -85 -16 -45 -26 -82 -21 -82 5 0 15 16
21 35 10 29 16 35 40 35 24 0 30 -6 40 -35 6 -19 16 -35 21 -35 5 0 -5 37 -21
82 -17 45 -30 83 -30 85 0 2 -4 3 -10 3 -5 0 -10 -1 -10 -3z m23 -57 c4 -15 0
-20 -13 -20 -13 0 -17 5 -13 20 3 11 9 20 13 20 4 0 10 -9 13 -20z"/>
<path d="M1250 486 c0 -102 18 -116 22 -19 l3 68 48 -68 c26 -37 52 -67 58
-67 5 0 8 38 7 88 -2 82 -2 83 -5 20 -2 -38 -8 -68 -13 -68 -5 0 -28 28 -52
62 -62 88 -68 86 -68 -16z"/>
<path d="M1452 550 c-29 -27 -37 -64 -22 -101 36 -85 170 -57 170 36 0 74 -94
115 -148 65z m105 -12 c47 -44 18 -128 -45 -128 -67 0 -98 88 -46 129 34 27
62 27 91 -1z"/>
<path d="M1774 485 c0 -49 1 -71 3 -48 2 23 2 64 0 90 -2 26 -3 8 -3 -42z"/>
<path d="M2113 480 c0 -47 2 -66 4 -42 2 23 2 61 0 85 -2 23 -4 4 -4 -43z"/>
<path d="M2213 495 c0 -22 2 -30 4 -17 2 12 2 30 0 40 -3 9 -5 -1 -4 -23z"/>
<path d="M309 483 c-13 -16 -12 -17 4 -4 16 13 21 21 13 21 -2 0 -10 -8 -17
-17z"/>
<path d="M2502 480 c0 -14 2 -19 5 -12 2 6 2 18 0 25 -3 6 -5 1 -5 -13z"/>
<path d="M280 440 c-6 -11 -8 -20 -6 -20 3 0 10 9 16 20 6 11 8 20 6 20 -3 0
-10 -9 -16 -20z"/>
<path d="M2212 425 c0 -16 2 -22 5 -12 2 9 2 23 0 30 -3 6 -5 -1 -5 -18z"/>
<path d="M252 385 c-7 -14 -12 -31 -12 -38 1 -7 7 3 16 22 17 39 13 54 -4 16z"/>
<path d="M232 300 c0 -14 2 -19 5 -12 2 6 2 18 0 25 -3 6 -5 1 -5 -13z"/>
</g>
</svg>
